<!-- <svg stroke="currentColor" fill="#FFFFFF" stroke-width="0" viewBox="0 0 448 512" height="180px" width="180px" xmlns="http://www.w3.org/2000/svg"><path d="M439.8 200.5c-7.7-30.9-22.3-54.2-53.4-54.2h-40.1v47.4c0 36.8-31.2 67.8-66.8 67.8H172.7c-29.2 0-53.4 25-53.4 54.3v101.8c0 29 25.2 46 53.4 54.3 33.8 9.9 66.3 11.7 106.8 0 26.9-7.8 53.4-23.5 53.4-54.3v-40.7H226.2v-13.6h160.2c31.1 0 42.6-21.7 53.4-54.2 11.2-33.5 10.7-65.7 0-108.6zM286.2 404c11.1 0 20.1 9.1 20.1 20.3 0 11.3-9 20.4-20.1 20.4-11 0-20.1-9.2-20.1-20.4.1-11.3 9.1-20.3 20.1-20.3zM167.8 248.1h106.8c29.7 0 53.4-24.5 53.4-54.3V91.9c0-29-24.4-50.7-53.4-55.6-35.8-5.9-74.7-5.6-106.8.1-45.2 8-53.4 24.7-53.4 55.6v40.7h106.9v13.6h-147c-31.1 0-58.3 18.7-66.8 54.2-9.8 40.7-10.2 66.1 0 108.6 7.6 31.6 25.7 54.2 56.8 54.2H101v-48.8c0-35.3 30.5-66.4 66.8-66.4zm-6.7-142.6c-11.1 0-20.1-9.1-20.1-20.3.1-11.3 9-20.4 20.1-20.4 11 0 20.1 9.2 20.1 20.4s-9 20.3-20.1 20.3z"></path></svg> -->

<!-- <svg xmlns="http://www.w3.org/2000/svg" fill="none" viewBox="16 16 32 32"><path fill="url(#a)" d="M31.885 16c-8.124 0-7.617 3.523-7.617 3.523l.01 3.65h7.752v1.095H21.197S16 23.678 16 31.876c0 8.196 4.537 7.906 4.537 7.906h2.708v-3.804s-.146-4.537 4.465-4.537h7.688s4.32.07 4.32-4.175v-7.019S40.374 16 31.885 16zm-4.275 2.454a1.394 1.394 0 1 1 0 2.79 1.393 1.393 0 0 1-1.395-1.395c0-.771.624-1.395 1.395-1.395z"/><path fill="url(#b)" d="M32.115 47.833c8.124 0 7.617-3.523 7.617-3.523l-.01-3.65H31.97v-1.095h10.832S48 40.155 48 31.958c0-8.197-4.537-7.906-4.537-7.906h-2.708v3.803s.146 4.537-4.465 4.537h-7.688s-4.32-.07-4.32 4.175v7.019s-.656 4.247 7.833 4.247zm4.275-2.454a1.393 1.393 0 0 1-1.395-1.395 1.394 1.394 0 1 1 1.395 1.395z"/><defs><linearGradient id="a" x1="19.075" x2="34.898" y1="18.782" y2="34.658" gradientUnits="userSpaceOnUse"><stop stop-color="#387EB8"/><stop offset="1" stop-color="#366994"/></linearGradient><linearGradient id="b" x1="28.809" x2="45.803" y1="28.882" y2="45.163" gradientUnits="userSpaceOnUse"><stop stop-color="#FFE052"/><stop offset="1" stop-color="#FFC331"/></linearGradient></defs></svg> -->


<svg xmlns="http://www.w3.org/2000/svg" width="32" height="32" fill="none" viewBox="16 16 32 32">
  <path fill="url(#a)" d="M31.885 16c-8.124 0-7.617 3.523-7.617 3.523l.01 3.65h7.752v1.095H21.197S16 23.678 16 31.876c0 8.196 4.537 7.906 4.537 7.906h2.708v-3.804s-.146-4.537 4.465-4.537h7.688s4.32.07 4.32-4.175v-7.019S40.374 16 31.885 16zm-4.275 2.454a1.394 1.394 0 1 1 0 2.79 1.393 1.393 0 0 1-1.395-1.395c0-.771.624-1.395 1.395-1.395z"/>
  <path fill="url(#b)" d="M32.115 47.833c8.124 0 7.617-3.523 7.617-3.523l-.01-3.65H31.97v-1.095h10.832S48 40.155 48 31.958c0-8.197-4.537-7.906-4.537-7.906h-2.708v3.803s.146 4.537-4.465 4.537h-7.688s-4.32-.07-4.32 4.175v7.019s-.656 4.247 7.833 4.247zm4.275-2.454a1.393 1.393 0 0 1-1.395-1.395 1.394 1.394 0 1 1 1.395 1.395z"/>
  <defs>
    <linearGradient id="a" x1="19.075" x2="34.898" y1="18.782" y2="34.658" gradientUnits="userSpaceOnUse">
      <stop stop-color="#387EB8"/>
      <stop offset="1" stop-color="#366994"/>
    </linearGradient>
    <linearGradient id="b" x1="28.809" x2="45.803" y1="28.882" y2="45.163" gradientUnits="userSpaceOnUse">
      <stop stop-color="#FFE052"/>
      <stop offset="1" stop-color="#FFC331"/>
    </linearGradient>
  </defs>
</svg>
